<svg width="124" height="126" viewBox="0 0 124 126" fill="none" xmlns="http://www.w3.org/2000/svg">
<path d="M21.193 87.1217C19.2335 87.1217 17.7897 86.6318 16.8616 85.6521C15.985 84.6723 15.5467 83.1254 15.5467 81.0113V76.6799C15.5467 73.5344 14.7474 70.75 13.1489 68.3264C12.788 67.6045 12.2208 66.8311 11.4473 66.006C12.2723 64.9747 12.8395 64.2013 13.1489 63.6856C14.7474 61.159 15.5467 58.3487 15.5467 55.2548V51.0008C15.5467 48.8866 15.985 47.3397 16.8616 46.36C17.7897 45.3287 19.2335 44.8131 21.193 44.8131V38.2386C17.7382 38.2386 14.8763 39.2441 12.6075 41.2551C10.184 43.5755 8.97221 46.8241 8.97221 51.0008V55.2548C8.97221 58.5034 7.5284 61.2105 4.6408 63.3762L1.08285 66.006L4.6408 68.6358C7.5284 70.75 8.97221 73.4313 8.97221 76.6799V81.0113C8.97221 85.188 10.184 88.4108 12.6075 90.6796C14.8763 92.6906 17.7382 93.6961 21.193 93.6961V87.1217Z" fill="#00B37E"/>
<path d="M102.125 93.6961C105.58 93.6961 108.442 92.6906 110.711 90.6796C113.134 88.4108 114.346 85.188 114.346 81.0113V76.6799C114.346 73.4313 115.79 70.75 118.678 68.6358L122.235 66.006L118.678 63.3762C115.79 61.2105 114.346 58.5034 114.346 55.2548V50.9234C114.346 46.7467 113.134 43.4982 110.711 41.1778C108.442 39.1668 105.58 38.1612 102.125 38.1612V44.7357C104.085 44.7357 105.503 45.2514 106.379 46.2826C107.308 47.2624 107.772 48.8093 107.772 50.9234V55.2548C107.772 58.3487 108.571 61.159 110.169 63.6856C110.479 64.2013 111.046 64.9747 111.871 66.006C111.098 66.8311 110.53 67.6045 110.169 68.3264C108.571 70.75 107.772 73.5344 107.772 76.6799V81.0113C107.772 83.1254 107.308 84.6723 106.379 85.6521C105.503 86.6318 104.085 87.1217 102.125 87.1217V93.6961Z" fill="#00B37E"/>
<path d="M48.1935 93C51.9062 93 54.8711 91.9945 57.0884 89.9835C58.3775 88.8491 59.383 87.4053 60.1049 85.6521C60.7237 84.002 61.0331 82.1199 61.0331 80.0058V52.161C61.0331 47.8296 59.744 44.4779 57.1657 42.1059C54.8453 39.9402 51.8546 38.8574 48.1935 38.8574H35.354V93H48.1935ZM43.8621 47.3655H48.1935C49.6373 47.3655 50.6944 47.6749 51.3647 48.2937C52.1382 49.0671 52.5249 50.3562 52.5249 52.161V80.0058C52.5249 81.8105 52.164 83.0223 51.4421 83.6411C50.8233 84.2083 49.7405 84.4919 48.1935 84.4919H43.8621V47.3655ZM76.9139 93.6961C80.1625 93.6961 82.7665 92.7937 84.7259 90.989C86.8916 88.978 87.9745 86.013 87.9745 82.0941V78.3041C87.9745 71.3945 84.4939 66.4185 77.5327 63.3762C76.2951 62.8606 75.0834 62.2418 73.8974 61.5199C72.7114 60.798 71.5254 59.5863 70.3394 57.8846C69.205 56.183 68.6378 53.9915 68.6378 51.3102V49.7632C68.6378 46.7209 69.4371 44.4521 71.0356 42.9567C72.3762 41.6676 74.3357 41.0231 76.9139 41.0231C79.4921 41.0231 81.4258 41.6676 82.7149 42.9567C84.3134 44.4005 85.1126 46.6694 85.1126 49.7632V55.0228H87.9745V49.7632C87.9745 45.8443 86.8916 42.8794 84.7259 40.8684C82.7665 39.0636 80.1625 38.1612 76.9139 38.1612C73.6138 38.1612 71.0098 39.0636 69.1019 40.8684C66.8846 42.931 65.776 45.8959 65.776 49.7632V51.3102C65.776 55.8994 66.962 59.2769 69.3339 61.4426C71.7059 63.6083 74.0521 65.1294 76.3725 66.006C78.2804 66.7795 80.214 68.0944 82.1735 69.9507C84.1329 71.807 85.1126 74.5915 85.1126 78.3041V82.0941C85.1126 85.188 84.3134 87.4568 82.7149 88.9006C81.3227 90.1897 79.389 90.8343 76.9139 90.8343C74.3357 90.8343 72.3762 90.1897 71.0356 88.9006C69.4371 87.4053 68.6378 85.1364 68.6378 82.0941V74.2048H65.776V82.0941C65.776 85.9615 66.8846 88.9264 69.1019 90.989C71.0098 92.7937 73.6138 93.6961 76.9139 93.6961Z" fill="white"/>
</svg>
