<svg width="291" height="124" viewBox="0 0 291 124" fill="none" xmlns="http://www.w3.org/2000/svg">
<path d="M21.193 87.1217C19.2335 87.1217 17.7897 86.6318 16.8616 85.6521C15.985 84.6723 15.5467 83.1254 15.5467 81.0113V76.6799C15.5467 73.5344 14.7474 70.75 13.1489 68.3264C12.788 67.6045 12.2208 66.8311 11.4473 66.006C12.2723 64.9747 12.8395 64.2013 13.1489 63.6856C14.7474 61.159 15.5467 58.3487 15.5467 55.2548V51.0008C15.5467 48.8866 15.985 47.3397 16.8616 46.36C17.7897 45.3287 19.2335 44.8131 21.193 44.8131V38.2386C17.7382 38.2386 14.8763 39.2441 12.6075 41.2551C10.184 43.5755 8.97221 46.8241 8.97221 51.0008V55.2548C8.97221 58.5034 7.5284 61.2105 4.6408 63.3762L1.08285 66.006L4.6408 68.6358C7.5284 70.75 8.97221 73.4313 8.97221 76.6799V81.0113C8.97221 85.188 10.184 88.4108 12.6075 90.6796C14.8763 92.6906 17.7382 93.6961 21.193 93.6961V87.1217Z" fill="#00B37E"/>
<path d="M269.609 93.6961C273.064 93.6961 275.926 92.6906 278.195 90.6796C280.618 88.4108 281.83 85.188 281.83 81.0113V76.6799C281.83 73.4313 283.274 70.75 286.161 68.6358L289.719 66.006L286.161 63.3762C283.274 61.2105 281.83 58.5034 281.83 55.2548V50.9234C281.83 46.7467 280.618 43.4982 278.195 41.1778C275.926 39.1668 273.064 38.1612 269.609 38.1612V44.7357C271.569 44.7357 272.987 45.2514 273.863 46.2826C274.791 47.2624 275.256 48.8093 275.256 50.9234V55.2548C275.256 58.3487 276.055 61.159 277.653 63.6856C277.963 64.2013 278.53 64.9747 279.355 66.006C278.581 66.8311 278.014 67.6045 277.653 68.3264C276.055 70.75 275.256 73.5344 275.256 76.6799V81.0113C275.256 83.1254 274.791 84.6723 273.863 85.6521C272.987 86.6318 271.569 87.1217 269.609 87.1217V93.6961Z" fill="#00B37E"/>
<path d="M51.7557 93C55.4683 93 58.4333 91.9945 60.6505 89.9835C61.9396 88.8491 62.9451 87.4053 63.667 85.6521C64.2858 84.002 64.5952 82.1199 64.5952 80.0058V52.161C64.5952 47.8296 63.3061 44.4779 60.7279 42.1059C58.4075 39.9402 55.4167 38.8574 51.7557 38.8574H38.9161V93H51.7557ZM47.4243 47.3655H51.7557C53.1995 47.3655 54.2565 47.6749 54.9269 48.2937C55.7003 49.0671 56.0871 50.3562 56.0871 52.161V80.0058C56.0871 81.8105 55.7261 83.0223 55.0042 83.6411C54.3855 84.2083 53.3026 84.4919 51.7557 84.4919H47.4243V47.3655ZM78.6197 47.3655V60.9785H88.2107V69.4866H78.6197V84.4919H92.5421V93H70.1116V38.8574H92.5421V47.3655H78.6197ZM117.092 38.8574H125.755L114.926 93H106.418L95.5894 38.8574H104.252L110.672 75.4423L117.092 38.8574ZM140.072 93.6961C143.321 93.6961 145.925 92.7937 147.884 90.989C150.05 88.978 151.133 86.013 151.133 82.0941V78.3041C151.133 71.3945 147.652 66.4185 140.691 63.3762C139.453 62.8606 138.242 62.2418 137.056 61.5199C135.87 60.798 134.684 59.5863 133.498 57.8846C132.363 56.183 131.796 53.9915 131.796 51.3102V49.7632C131.796 46.7209 132.595 44.4521 134.194 42.9567C135.535 41.6676 137.494 41.0231 140.072 41.0231C142.65 41.0231 144.584 41.6676 145.873 42.9567C147.472 44.4005 148.271 46.6694 148.271 49.7632V55.0228H151.133V49.7632C151.133 45.8443 150.05 42.8794 147.884 40.8684C145.925 39.0636 143.321 38.1612 140.072 38.1612C136.772 38.1612 134.168 39.0636 132.26 40.8684C130.043 42.931 128.934 45.8959 128.934 49.7632V51.3102C128.934 55.8994 130.12 59.2769 132.492 61.4426C134.864 63.6083 137.21 65.1294 139.531 66.006C141.439 66.7795 143.372 68.0944 145.332 69.9507C147.291 71.807 148.271 74.5915 148.271 78.3041V82.0941C148.271 85.188 147.472 87.4568 145.873 88.9006C144.481 90.1897 142.547 90.8343 140.072 90.8343C137.494 90.8343 135.535 90.1897 134.194 88.9006C132.595 87.4053 131.796 85.1364 131.796 82.0941V74.2048H128.934V82.0941C128.934 85.9615 130.043 88.9264 132.26 90.989C134.168 92.7937 136.772 93.6961 140.072 93.6961ZM177.037 41.7192H166.75V93H163.888V41.7192H153.679V38.8574H177.037V41.7192ZM196.172 78.7682H181.244L178.15 93H175.211L187.277 38.8574H190.139L202.205 93H199.266L196.172 78.7682ZM195.476 75.9064L188.747 44.8131L181.94 75.9064H195.476ZM216.744 93.6961C220.045 93.6961 222.649 92.7937 224.556 90.989C226.774 88.978 227.882 86.013 227.882 82.0941V64.4591H216.822V67.3209H225.021V82.0941C225.021 85.1364 224.221 87.4053 222.623 88.9006C221.282 90.1897 219.323 90.8343 216.744 90.8343C214.218 90.8343 212.284 90.1897 210.943 88.9006C209.345 87.4568 208.546 85.188 208.546 82.0941V49.7632C208.546 46.6694 209.345 44.4005 210.943 42.9567C212.387 41.6676 214.321 41.0231 216.744 41.0231C219.22 41.0231 221.179 41.6676 222.623 42.9567C224.221 44.4521 225.021 46.7209 225.021 49.7632V55.1002H227.882V49.7632C227.882 45.8443 226.774 42.8794 224.556 40.8684C222.649 39.0636 220.045 38.1612 216.744 38.1612C213.496 38.1612 210.918 39.0636 209.01 40.8684C206.793 42.8794 205.684 45.8443 205.684 49.7632V82.0941C205.684 86.013 206.793 88.978 209.01 90.989C210.918 92.7937 213.496 93.6961 216.744 93.6961ZM236.504 41.7192V63.8403H248.183V66.7021H236.504V90.1382H253.056V93H233.642V38.8574H253.056V41.7192H236.504Z" fill="#00B37E"/>
</svg>
